<svg version="1" xmlns="http://www.w3.org/2000/svg" width="933.333" height="933.333" viewBox="0 0 700.000000 700.000000"><path d="M214 44.2c-7.3.8-15.5 3.6-22.7 7.5-4.9 2.8-17.2 14.4-21.1 20-4.4 6.4-11 21.2-12.7 28.3-.2.8-.9 3.7-1.5 6.5-3 13-3.4 37.3-.7 52 1.8 9.8 5.9 24.9 8.4 30.5 11.2 25.4 23.8 43 39.8 55.7 33 26.1 71.7 22.8 94.9-8.1 17-22.6 22.8-59.6 15.2-96.5-1.2-5.5-3.9-14.2-7.3-22.9-15.1-39.7-47.5-69.8-78.3-72.8-3-.3-5.9-.6-6.5-.8-.5-.1-3.9.1-7.5.6zM473.2 44.1c-22.1 2.7-44.4 17-60.9 39-13.5 17.8-23.6 42.4-27.7 67.4-1.5 9.1-1.6 37.5-.2 44 3.8 17 9 30.3 15.4 39.7 22.7 33.1 62.6 37.4 96.7 10.4 16.6-13.1 31.2-33.8 40.3-57.1 10.5-26.8 12.7-61.2 5.7-87.5-2.3-8.4-9.5-23.6-14.7-30.8-4.6-6.3-13-14-19.5-17.6-3.9-2.3-14.4-6.6-16.1-6.6-.4 0-2.3-.2-4.2-.5-7-1.1-8.6-1.2-14.8-.4zM632.8 218.4c-.1.2-3.2.7-6.8 1-30.1 3.2-60.9 30.2-72.6 63.7-4.9 14.1-6.4 23.2-6 37.9.3 15.5 1.8 22.3 7.7 34.9 11.5 24.5 33.8 38.7 59.4 37.5 9.9-.4 12.1-.8 18.7-2.9 27.7-9.1 51-33.4 61.2-63.9 1.4-4.3 2.8-9.1 3.1-10.5.3-1.4.7-3.7 1.1-5.1.3-1.4.7-8.2.9-15.1.5-18.1-2.7-31.6-10.8-45.5-10.4-17.7-28-29.3-47.2-31-3.3-.3-6.5-.7-7.2-.9-.6-.2-1.3-.2-1.5-.1zM46.5 221.9c-14.5 4.9-24.9 12.9-33.1 25.3C3.8 261.8 0 276 .4 295.8c.2 7 .9 14.9 1.5 17.7.7 2.7 1.4 5.7 1.6 6.5 1.8 8.4 10 26.1 15.8 34.3 25.1 34.9 63.5 48.3 95.2 33.1 38-18.1 50.1-73.5 25.9-118.2-12.9-23.6-32.3-40.4-55.5-47.7-3.6-1.2-9.6-1.9-17.9-2.1-11.4-.2-13.2 0-20.5 2.5zM334 307.5c-13.6 2.2-15.4 2.7-27.5 6.6-67.8 22.2-151.9 99.6-192.3 176.9-2.4 4.7-5 9.6-5.7 11-.7 1.4-2.3 4.7-3.5 7.5-1.2 2.7-2.8 6.3-3.5 8-2.8 6.1-9.6 28-11 35-.3 1.6-.7 4.1-1 5.5-2.9 15.3-2.2 36.3 1.6 46.5 2.1 5.5 6.3 14 7.6 15.3.7.7 1.3 1.7 1.3 2.2 0 .5 2.8 3.7 6.3 7.3 14.7 15 34.8 23.3 63.2 26.2 6.6.7 26.7.7 33 0 4.1-.4 14.6-1.8 15.5-2 .9-.2 9.5-1.5 10.2-1.6.4 0 4.9-1.2 10-2.5 5.1-1.4 10-2.7 10.8-2.9 2.2-.5 23.3-7.2 31.5-10 6.7-2.2 22.6-7.1 26.2-8.1 7.8-1.9 19.7-4.5 23.8-5.1 6.6-.9 32.6-.9 39.5 0 9.7 1.4 25.9 5.7 48 12.7 40.2 12.8 48.4 15 67 17.9 16.8 2.7 41.7 3 53.6.7 1.2-.3 3.9-.7 6-1 2.2-.4 5.7-1.1 7.9-1.7 26.1-7 43.9-20.3 53.3-39.9 5.1-10.7 7.8-29.7 6.1-43-.4-3-1-7.5-1.3-10-.3-2.5-1.3-7.3-2.2-10.5-.9-3.3-1.8-7-2-8.2-1.6-8.1-12.1-33.5-20.5-49.3-6.9-12.8-27-44.6-29.8-47-.3-.3-2-2.3-3.6-4.5-16.7-22.5-42.6-49.6-68.1-71.5-11.9-10.3-35.5-27-49.4-35-10.6-6.1-29.6-14.9-39.7-18.4-5.7-1.9-10.3-3.3-10.3-3.1 0 .3-1.1 0-2.5-.5s-3.6-1.2-4.8-1.4c-1.2-.3-4.7-1-7.7-1.6-8-1.6-27.3-1.9-36-.5z"/></svg>